<svg xmlns="http://www.w3.org/2000/svg" width="213" height="54"><path d="M94.918 23.33c-.076-1.84-1.412-3.453-3.932-3.453-2.873 0-4.234 1.89-4.234 4.839v2.772c0 2.95 1.21 5.015 4.26 5.015 2.57 0 3.981-1.588 3.981-3.528v-.252h-2.916l-1.04-2.873h7.409v2.293c0 4.234-2.95 7.183-7.485 7.183-5.242 0-7.712-3.529-7.712-7.914v-2.57c0-4.739 2.823-7.863 7.636-7.863 4.562 0 7.285 2.696 7.385 6.35h-3.352z" fill-rule="evenodd"/><path d="M103.817 17.33h3.527v17.643h-3.527V17.331z" fill-rule="evenodd"/><path d="M124.384 23.33c-.076-1.84-1.412-3.453-3.932-3.453-2.873 0-4.234 1.89-4.234 4.839v2.772c0 2.95 1.21 5.015 4.26 5.015 2.571 0 3.981-1.588 3.981-3.528v-.252h-2.916l-1.04-2.873h7.409v2.293c0 4.234-2.949 7.183-7.485 7.183-5.242 0-7.712-3.529-7.712-7.914v-2.57c0-4.739 2.822-7.863 7.637-7.863 4.561 0 7.283 2.696 7.385 6.35h-3.353z" fill-rule="evenodd"/><path d="M132.603 29.857v-.454h3.377v.38c0 1.637 1.285 2.822 3.654 2.822 2.092 0 3.454-.933 3.454-2.571 0-.983-.48-1.689-1.664-1.991l-4.612-1.185c-2.672-.68-3.932-1.915-3.932-4.562 0-3.327 2.52-5.318 6.477-5.318 3.906 0 6.376 2.168 6.376 5.267v.43h-3.251v-.354c0-1.487-.957-2.62-3.125-2.62-1.865 0-3.075.755-3.075 2.293 0 1.033.53 1.613 1.512 1.865l4.839 1.285c2.596.68 3.856 2.218 3.856 4.612 0 3.352-2.998 5.57-6.981 5.57-4.159 0-6.905-2.016-6.905-5.469z" fill-rule="evenodd"/><g><path d="M154.556 20.255h-4.99V17.33h12.469l1.041 2.924h-4.991v14.718h-3.529V20.255z" fill-rule="evenodd"/></g><g><path d="M167.563 17.33h12.35v2.925h-8.822v4.31h7.691v2.948h-7.691v4.537h7.807l1.039 2.923h-12.374V17.331z" fill-rule="evenodd"/></g><g><path d="M192.568 26.48c2.166 0 3.276-1.335 3.276-3.176 0-1.89-1.133-3.1-3.276-3.1h-4.008v6.276h4.008m-.303 2.848h-3.705v5.646h-3.528V17.33h7.964c4.159 0 6.376 2.571 6.376 6 0 2.493-1.31 4.51-3.478 5.442l3.68 6.2h-4.083l-3.226-5.645z" fill-rule="evenodd"/></g><g><path d="M19.866 7.149v39.767l34.087-19.884L19.865 7.15m-2.411 43.966V2.95l41.285 24.082-41.285 24.083z" fill-rule="evenodd" fill="#97d5ff"/><g><path d="M4.338 28.289h26.229L43.68 51.003H17.452L4.338 28.29M17.452 3.062H43.68L30.567 25.776H4.338L17.452 3.062m15.29 23.97L45.858 4.319 58.97 27.033 45.856 49.747 32.743 27.033M46.582.549h-30.58L.712 27.033l15.29 26.483h30.58l15.29-26.483L46.582.549z" fill-rule="evenodd" fill="#1f7edd"/></g></g></svg>

