<svg xmlns="http://www.w3.org/2000/svg" viewBox="0 0 1328 214">
                <g fill="#1f9fd7" fill-rule="evenodd" transform="rotate(90 663.5 664)">
                    <path
                        d="M92.5111071 6.5C90.8481185 6.5 89.5 5.1484123 89.5 3.4811444c0-1.66726793 1.3481185-3.01885563 3.0111071-3.01885563 1.6629885 0 3.011107 1.3515877 3.011107 3.01885562 0 1.6672679-1.3481185 3.0188556-3.011107 3.0188556zM92.5 5.47258207c1.1045695 0 2-.89773473 2-2.00514665 0-1.1074119-.8954305-2.00514665-2-2.00514665s-2 .89773474-2 2.00514665c0 1.10741192.8954305 2.00514665 2 2.00514665zM175.511107 203.5c-1.662988 0-3.011107-1.351588-3.011107-3.018856s1.348119-3.018855 3.011107-3.018855c1.662989 0 3.011107 1.351587 3.011107 3.018855 0 1.667268-1.348118 3.018856-3.011107 3.018856zM175.5 202.472582c1.104569 0 2-.897735 2-2.005147 0-1.107411-.895431-2.005146-2-2.005146-1.104569 0-2 .897735-2 2.005146 0 1.107412.895431 2.005147 2 2.005147zM25.5111071 298.5C23.8481185 298.5 22.5 297.148412 22.5 295.481144s1.3481185-3.018855 3.0111071-3.018855c1.6629885 0 3.011107 1.351587 3.011107 3.018855 0 1.667268-1.3481185 3.018856-3.011107 3.018856zM25.5 297.472582c1.1045695 0 2-.897735 2-2.005147 0-1.107411-.8954305-2.005146-2-2.005146s-2 .897735-2 2.005146c0 1.107412.8954305 2.005147 2 2.005147zM163.511107 536.5c-1.662988 0-3.011107-1.351588-3.011107-3.018856s1.348119-3.018855 3.011107-3.018855c1.662989 0 3.011107 1.351587 3.011107 3.018855 0 1.667268-1.348118 3.018856-3.011107 3.018856zM163.5 535.472582c1.104569 0 2-.897735 2-2.005147 0-1.107411-.895431-2.005146-2-2.005146-1.104569 0-2 .897735-2 2.005146 0 1.107412.895431 2.005147 2 2.005147zM117.511107 743.5c-1.662988 0-3.011107-1.351588-3.011107-3.018856s1.348119-3.018855 3.011107-3.018855c1.662989 0 3.011107 1.351587 3.011107 3.018855 0 1.667268-1.348118 3.018856-3.011107 3.018856zM117.5 742.472582c1.104569 0 2-.897735 2-2.005147 0-1.107411-.895431-2.005146-2-2.005146-1.104569 0-2 .897735-2 2.005146 0 1.107412.895431 2.005147 2 2.005147zM69.5111071 633.5C67.8481185 633.5 66.5 632.148412 66.5 630.481144s1.3481185-3.018855 3.0111071-3.018855c1.6629885 0 3.011107 1.351587 3.011107 3.018855 0 1.667268-1.3481185 3.018856-3.011107 3.018856zM69.5 632.472582c1.1045695 0 2-.897735 2-2.005147 0-1.107411-.8954305-2.005146-2-2.005146s-2 .897735-2 2.005146c0 1.107412.8954305 2.005147 2 2.005147zM158.511107 1030.5c-1.662988 0-3.011107-1.35159-3.011107-3.01886 0-1.66726 1.348119-3.01885 3.011107-3.01885 1.662989 0 3.011107 1.35159 3.011107 3.01885 0 1.66727-1.348118 3.01886-3.011107 3.01886zm-.011107-1.02742c1.104569 0 2-.89773 2-2.00514 0-1.10742-.895431-2.00515-2-2.00515-1.104569 0-2 .89773-2 2.00515 0 1.10741.895431 2.00514 2 2.00514zM46.5111071 984.5C44.8481185 984.5 43.5 983.148412 43.5 981.481144s1.3481185-3.018855 3.0111071-3.018855c1.6629885 0 3.011107 1.351587 3.011107 3.018855 0 1.667268-1.3481185 3.018856-3.011107 3.018856zM46.5 983.472582c1.1045695 0 2-.897735 2-2.005147 0-1.107411-.8954305-2.005146-2-2.005146s-2 .897735-2 2.005146c0 1.107412.8954305 2.005147 2 2.005147zm40.1254625 245.120688c-1.6629886 0-3.0111071-1.35159-3.0111071-3.01886s1.3481185-3.01885 3.0111071-3.01885c1.6629885 0 3.011107 1.35158 3.011107 3.01885s-1.3481185 3.01886-3.011107 3.01886zm-.0111071-1.02742c1.1045695 0 2-.89774 2-2.00515s-.8954305-2.00514-2-2.00514-2 .89773-2 2.00514c0 1.10741.8954305 2.00515 2 2.00515zm20.0111066-92.97258c-1.662988 0-3.011107-1.35159-3.011107-3.01886s1.348119-3.01885 3.011107-3.01885c1.662989 0 3.011108 1.35158 3.011108 3.01885s-1.348119 3.01886-3.011108 3.01886zm-.011107-1.02742c1.10457 0 2-.89774 2-2.00515s-.89543-2.00514-2-2.00514c-1.104569 0-2 .89773-2 2.00514 0 1.10741.895431 2.00515 2 2.00515zM142.511107 58.5c-1.662988 0-3.011107-1.3515877-3.011107-3.0188556 0-1.6672679 1.348119-3.0188556 3.011107-3.0188556 1.662989 0 3.011107 1.3515877 3.011107 3.0188556 0 1.6672679-1.348118 3.0188556-3.011107 3.0188556zM142.5 57.4725821c1.104569 0 2-.8977348 2-2.0051467s-.895431-2.0051466-2-2.0051466c-1.104569 0-2 .8977347-2 2.0051466 0 1.1074119.895431 2.0051467 2 2.0051467z"
                        opacity=".59999996"/>
                    <ellipse cx="192.014209" cy="93.4633001" opacity=".19999999" rx="3.01110706" ry="3.01885561"/>
                    <ellipse cx="138.090159" cy="142.685522" opacity=".70000005" rx="3.01110706" ry="3.01885561"/>
                    <ellipse cx="102.140792" cy="241.129967" opacity=".70000005" rx="3.01110706" ry="3.01885561"/>
                    <ellipse cx="183.026868" cy="388.796633" opacity=".19999999" rx="3.01110706" ry="3.01885561"/>
                    <ellipse cx="129.102817" cy="487.241078" opacity=".70000005" rx="3.01110706" ry="3.01885561"/>
                    <ellipse cx="3.28003218" cy="684.129967" opacity=".70000005" rx="3.01110706" ry="3.01885561"/>
                    <ellipse cx="48.216741" cy="831.796633" opacity=".70000005" rx="3.01110706" ry="3.01885561"/>
                    <ellipse cx="209.988893" cy="585.685522" opacity=".19999999" rx="3.01110706" ry="3.01885561"/>
                    <ellipse cx="156.064842" cy="782.574411" opacity=".70000005" rx="3.01110706" ry="3.01885561"/>
                    <ellipse cx="120.115475" cy="930.241078" opacity=".70000005" rx="3.01110706" ry="3.01885561"/>
                    <ellipse cx="201.001551" cy="1077.90774" opacity=".19999999" rx="3.01110706" ry="3.01885561"/>
                    <ellipse cx="147.077501" cy="1176.35219" opacity=".70000005" rx="3.01110706" ry="3.01885561"/>
                    <ellipse cx="21.2547157" cy="1274.79663" opacity=".70000005" rx="3.01110706" ry="3.01885561"/>
                    <ellipse cx="57.0111071" cy="1324.01886" opacity=".70000005" rx="3.01110706" ry="3.01885561"/>
                </g>
            </svg>