<?xml version="1.0" encoding="utf-8"?>
<!-- Generator: Adobe Illustrator 16.0.0, SVG Export Plug-In . SVG Version: 6.00 Build 0)  -->
<!DOCTYPE svg PUBLIC "-//W3C//DTD SVG 1.1//EN" "http://www.w3.org/Graphics/SVG/1.1/DTD/svg11.dtd">
<svg version="1.1" id="Layer_1" xmlns="http://www.w3.org/2000/svg" xmlns:xlink="http://www.w3.org/1999/xlink" x="0px" y="0px"
	 width="600px" height="600px" viewBox="0 0 600 600" enable-background="new 0 0 600 600" xml:space="preserve">
<path fill="rgba(31, 159, 215,0.8)" d="M0,600C0,399.999,0,200,0,0c200,0,400,0,600,0c0,200,0,399.999,0,600C400,600,200,600,0,600z
	 M284.833,351.424c-11.051,0.095-20.444-3.642-25.079-14.589c-4.455-10.521-0.883-21.046,11.349-28.312
	c11.023-6.549,17.447-14.012,15.082-27.228c-0.771-4.312-1.858-7.175-5.885-9.239c-5.18-2.656-10.251-5.561-15.121-8.715
	c-14.258-9.234-14.404-27.86-0.432-37.45c1.333-0.915,2.59-1.932,4.092-3.06c-15.087-7.971-48.75-7.173-57.3,1.02
	c18.631,13.21,17.767,30.718-2.082,42.157c-3.49,2.012-7.314,3.65-10.352,6.17c-2.079,1.724-3.857,4.521-4.397,7.105
	c-2.807,13.454,0.886,24.172,14.856,30.1c1.206,0.511,2.23,1.487,3.229,2.364c6.706,5.893,9.52,13.085,7.523,21.747
	c-1.992,8.645-7.607,14.167-16.307,16.699c-2.96,0.86-6.106,1.132-9.189,1.678c-0.556,3.389-0.895,6.614-1.628,9.757
	c-8.242,35.214-16.641,70.396-24.781,105.633c-3.273,14.169,4.214,25.47,18.352,28.562c12.329,2.697,24.363-5.652,27.583-19.229
	c6.435-27.137,12.803-54.286,19.239-81.422c1.91-8.046,3.956-16.062,5.939-24.094c4.001,10.433,6.49,20.748,8.935,31.074
	c5.974,25.229,11.858,50.48,17.917,75.692c3.01,12.522,15.43,20.595,27.269,18.012c13.729-2.995,21.414-14.041,18.672-27.271
	c-1.9-9.164-4.178-18.256-6.323-27.373C299.015,411.558,292.019,381.906,284.833,351.424z M361.825,432.367
	c1.959-2.812,3.177-4.601,4.435-6.36c16.277-22.801,37.561-39.338,65.933-45.295c25.094-5.271,45.087-17.711,61.822-35.83
	c1.34-1.453,2.26-3.27,3.59-5.238c-22.383-8.432-41.432-20.24-57.694-35.785c-17.416-16.647-33.952-34.142-51.158-50.994
	c-20.718-20.286-42.825-38.502-73.205-44.12c-11.589-2.143-27.788-1.288-34.524,2.795c3.265,1.607,6.433,3.216,9.645,4.737
	c6.352,3.007,12.445,7.458,19.152,8.639c14.575,2.566,28.192,7.178,39.047,16.567c18.028,15.593,35.536,31.812,52.365,48.599
	c20.212,20.16,39.853,40.786,65.483,54.891c0.456,0.25,0.545,1.12,0.992,2.126c-11.545,9.697-25.683,13.86-40.056,17.483
	c-21.701,5.472-41.462,14.238-56.966,30.465c-1.727,1.808-3.818,3.293-5.61,4.812c-6.658-9.81-12.449-19.387-19.321-28.182
	c-6.979-8.936-15.021-17.103-23.001-26.058c-4.573,4.617-8.236,8.315-12.501,12.619
	C333.882,378.783,347.437,405.242,361.825,432.367z M239.424,201.375c24.333,0.118,43.8-18.218,43.95-41.397
	c0.149-22.986-19.52-42.236-43.274-42.35c-24.22-0.117-44.08,19.038-43.905,42.344C196.366,182.987,215.444,201.259,239.424,201.375
	z M158.196,285.021c2.791-1.728,4.621-2.923,6.512-4.021c14.305-8.309,28.677-16.515,42.914-24.932
	c7.225-4.271,9.298-11.513,5.564-17.945c-3.807-6.559-11.899-8.676-19.288-4.455c-22.521,12.866-44.988,25.824-67.293,39.032
	c-8.657,5.126-8.865,15.811-0.848,21.898c3.722,2.826,7.65,5.398,11.492,8.078c17.191,11.995,34.374,23.999,51.581,35.975
	c5.544,3.857,11.379,4.219,16.979,0.367c4.974-3.422,6.554-8.637,4.549-13.908c-1.219-3.206-4.081-6.26-6.995-8.364
	C188.742,306.189,173.859,295.969,158.196,285.021z M321.104,284.878c-3.276,2.308-5.617,3.967-7.97,5.611
	c-12.987,9.074-26.046,18.054-38.936,27.255c-6.773,4.836-8.166,12.261-3.9,18.357c4.118,5.886,12.629,7.508,19.207,2.988
	c21.522-14.789,42.985-29.665,64.203-44.853c8.356-5.981,7.389-16.289-1.478-21.817c-4.359-2.717-8.896-5.17-13.348-7.748
	c-17.812-10.315-35.628-20.618-53.422-30.958c-5.399-3.137-10.735-3.208-15.847,0.372c-4.712,3.299-6.64,8.258-4.749,13.257
	c1.338,3.537,4.406,7.161,7.725,9.189C288.205,266.064,304.173,275.06,321.104,284.878z"/>
<path fill-rule="evenodd" clip-rule="evenodd" fill="#e5eaee" d="M284.833,351.424c7.185,30.482,14.181,60.134,21.161,89.788
	c2.146,9.117,4.423,18.209,6.323,27.373c2.742,13.23-4.942,24.276-18.672,27.271c-11.839,2.583-24.259-5.489-27.269-18.012
	c-6.059-25.212-11.943-50.463-17.917-75.692c-2.445-10.326-4.934-20.642-8.935-31.074c-1.983,8.031-4.029,16.048-5.939,24.094
	c-6.436,27.136-12.804,54.285-19.239,81.422c-3.22,13.577-15.254,21.927-27.583,19.229c-14.138-3.093-21.625-14.394-18.352-28.562
	c8.14-35.237,16.539-70.419,24.781-105.633c0.734-3.143,1.073-6.368,1.628-9.757c3.083-0.546,6.229-0.817,9.189-1.678
	c8.7-2.532,14.315-8.055,16.307-16.699c1.997-8.662-0.817-15.854-7.523-21.747c-0.998-0.877-2.023-1.854-3.229-2.364
	c-13.97-5.928-17.663-16.646-14.856-30.1c0.54-2.584,2.318-5.382,4.397-7.105c3.037-2.52,6.861-4.158,10.352-6.17
	c19.848-11.438,20.713-28.947,2.082-42.157c8.549-8.193,42.212-8.99,57.3-1.02c-1.502,1.127-2.759,2.145-4.092,3.06
	c-13.973,9.59-13.826,28.216,0.432,37.45c4.87,3.154,9.94,6.059,15.121,8.715c4.027,2.064,5.113,4.928,5.885,9.239
	c2.365,13.216-4.058,20.679-15.082,27.228c-12.232,7.266-15.803,17.791-11.349,28.312
	C264.389,347.782,273.782,351.519,284.833,351.424z"/>
<path fill-rule="evenodd" clip-rule="evenodd" fill="#FFF200" d="M361.825,432.367c-14.389-27.125-27.943-53.584-51.573-74.128
	c4.265-4.304,7.928-8.002,12.501-12.619c7.979,8.955,16.021,17.122,23.001,26.058c6.872,8.795,12.663,18.372,19.321,28.182
	c1.792-1.52,3.884-3.005,5.61-4.812c15.504-16.227,35.265-24.993,56.966-30.465c14.373-3.623,28.511-7.786,40.056-17.483
	c-0.447-1.006-0.536-1.876-0.992-2.126c-25.631-14.105-45.271-34.731-65.483-54.891c-16.829-16.787-34.337-33.006-52.365-48.599
	c-10.854-9.39-24.472-14.001-39.047-16.567c-6.707-1.181-12.801-5.631-19.152-8.639c-3.212-1.521-6.38-3.13-9.645-4.737
	c6.737-4.083,22.936-4.938,34.524-2.795c30.38,5.618,52.487,23.834,73.205,44.12c17.206,16.852,33.742,34.347,51.158,50.994
	c16.263,15.545,35.312,27.354,57.694,35.785c-1.33,1.969-2.25,3.785-3.59,5.238c-16.735,18.119-36.729,30.56-61.822,35.83
	c-28.372,5.957-49.655,22.494-65.933,45.295C365.002,427.767,363.784,429.555,361.825,432.367z"/>
<path fill-rule="evenodd" clip-rule="evenodd" fill="#e5eaee" d="M239.424,201.375c-23.979-0.117-43.058-18.388-43.23-41.403
	c-0.175-23.306,19.686-42.46,43.905-42.344c23.754,0.114,43.424,19.364,43.274,42.35
	C283.224,183.157,263.757,201.494,239.424,201.375z"/>
<path fill-rule="evenodd" clip-rule="evenodd" d="M158.196,285.021c15.663,10.947,30.546,21.168,45.167,31.725
	c2.915,2.104,5.776,5.158,6.995,8.364c2.005,5.271,0.424,10.486-4.549,13.908c-5.6,3.852-11.435,3.49-16.979-0.367
	c-17.207-11.976-34.39-23.979-51.581-35.975c-3.841-2.68-7.77-5.252-11.492-8.078c-8.017-6.087-7.809-16.772,0.848-21.898
	c22.306-13.208,44.773-26.166,67.293-39.032c7.389-4.221,15.481-2.104,19.288,4.455c3.734,6.432,1.66,13.674-5.564,17.945
	c-14.237,8.417-28.609,16.623-42.914,24.932C162.817,282.099,160.987,283.294,158.196,285.021z"/>
<path fill-rule="evenodd" clip-rule="evenodd" d="M321.104,284.878c-16.931-9.818-32.898-18.813-48.514-28.347
	c-3.319-2.028-6.387-5.652-7.725-9.189c-1.891-4.999,0.037-9.958,4.749-13.257c5.111-3.58,10.448-3.509,15.847-0.372
	c17.794,10.341,35.611,20.644,53.422,30.958c4.452,2.578,8.988,5.031,13.348,7.748c8.866,5.529,9.834,15.836,1.478,21.817
	c-21.218,15.188-42.681,30.064-64.203,44.853c-6.578,4.52-15.089,2.897-19.207-2.988c-4.266-6.097-2.873-13.521,3.9-18.357
	c12.89-9.201,25.949-18.181,38.936-27.255C315.486,288.845,317.827,287.186,321.104,284.878z"/>
</svg>
